<svg width="20" height="20" viewBox="0 0 20 20" fill="none" xmlns="http://www.w3.org/2000/svg">
    <path d="M16.25 0C17.2826 0 18.1667 0.367188 18.8997 1.10026C19.6328 1.83333 20 2.71745 20 3.75V16.25C20 17.2826 19.6328 18.1667 18.8997 18.8997C18.1667 19.6328 17.2826 20 16.25 20H13.8021V12.2526H16.3932L16.7839 9.23177H13.8021V7.30469C13.8021 6.81901 13.9036 6.45443 14.1081 6.21094C14.3125 5.96745 14.7096 5.84635 15.2995 5.84635L16.888 5.83333V3.13802C16.3411 3.0599 15.569 3.02083 14.5703 3.02083C13.3893 3.02083 12.4453 3.36849 11.7383 4.0625C11.0312 4.75651 10.6771 5.73828 10.6771 7.00521V9.23177H8.07292V12.2526H10.6771V20H3.75C2.71745 20 1.83333 19.6328 1.10026 18.8997C0.367188 18.1667 0 17.2826 0 16.25V3.75C0 2.71745 0.367188 1.83333 1.10026 1.10026C1.83333 0.367188 2.71745 0 3.75 0H16.25Z"
          fill="#2F2B32"/>
</svg>
