<svg width="20" height="20" viewBox="0 0 20 20" fill="none" xmlns="http://www.w3.org/2000/svg">
    <g clip-path="url(#clip0)">
        <path d="M9.99996 1.93246C12.6275 1.93246 12.9387 1.9425 13.9765 1.98984C14.936 2.03363 15.457 2.1939 15.8038 2.32867C16.2312 2.48642 16.6178 2.73796 16.9353 3.0648C17.2621 3.38222 17.5136 3.76886 17.6714 4.19628C17.8062 4.54304 17.9665 5.0641 18.0102 6.02355C18.0576 7.06125 18.0676 7.37246 18.0676 10.0001C18.0676 12.6278 18.0576 12.9389 18.0102 13.9767C17.9664 14.9361 17.8061 15.4571 17.6714 15.8039C17.5077 16.2283 17.2569 16.6138 16.9353 16.9354C16.6136 17.2571 16.2282 17.5078 15.8038 17.6716C15.457 17.8063 14.936 17.9666 13.9765 18.0104C12.939 18.0577 12.6278 18.0678 9.99996 18.0678C7.37211 18.0678 7.06102 18.0577 6.0234 18.0104C5.06395 17.9666 4.54293 17.8063 4.19614 17.6716C3.76871 17.5138 3.38207 17.2623 3.06465 16.9354C2.73782 16.618 2.48628 16.2314 2.32852 15.8039C2.19375 15.4572 2.03344 14.9361 1.98969 13.9767C1.94235 12.939 1.93231 12.6278 1.93231 10.0001C1.93231 7.37246 1.94235 7.06132 1.98969 6.02355C2.03348 5.0641 2.19375 4.54308 2.32852 4.19628C2.48629 3.76884 2.73786 3.38219 3.06473 3.06476C3.38215 2.73793 3.76879 2.48638 4.19621 2.32863C4.54297 2.19386 5.06403 2.03355 6.02348 1.9898C7.06117 1.94246 7.37239 1.93242 10 1.93242L9.99996 1.93246ZM10 0.159332C7.32746 0.159332 6.99223 0.17066 5.94278 0.218551C4.89532 0.266363 4.18 0.432692 3.55407 0.675973C2.89745 0.923068 2.30263 1.31042 1.8111 1.81101C1.31039 2.30252 0.922933 2.89733 0.675747 3.55398C0.432661 4.17996 0.266333 4.89527 0.218716 5.94273C0.17063 6.99218 0.159302 7.32742 0.159302 9.99999C0.159302 12.6726 0.17063 13.0078 0.218716 14.0573C0.266528 15.1047 0.432856 15.82 0.676137 16.446C0.923233 17.1026 1.31058 17.6974 1.81118 18.1889C2.30271 18.6895 2.89753 19.0769 3.55414 19.324C4.18012 19.5673 4.89543 19.7336 5.94285 19.7814C6.99246 19.8293 7.32758 19.8406 10.0001 19.8406C12.6727 19.8406 13.0079 19.8293 14.0574 19.7814C15.1048 19.7336 15.8202 19.5673 16.4461 19.324C17.0998 19.0711 17.6935 18.6845 18.1891 18.1889C18.6847 17.6933 19.0713 17.0997 19.3241 16.446C19.5674 15.82 19.7337 15.1047 19.7815 14.0573C19.8294 13.0076 19.8407 12.6725 19.8407 9.99999C19.8407 7.32746 19.8294 6.99218 19.7815 5.94273C19.7337 4.89527 19.5674 4.17996 19.3241 3.55402C19.077 2.8974 18.6897 2.30258 18.1891 1.81105C17.6975 1.31036 17.1027 0.922925 16.446 0.675777C15.82 0.432692 15.1047 0.266363 14.0572 0.218746C13.0078 0.17066 12.6725 0.159332 9.99996 0.159332H10Z" fill="#2F2B32"/>
        <path d="M9.99998 4.94667C9.00052 4.94667 8.02352 5.24304 7.1925 5.79831C6.36149 6.35357 5.71379 7.14279 5.33132 8.06617C4.94884 8.98954 4.84877 10.0056 5.04376 10.9858C5.23874 11.9661 5.72002 12.8665 6.42674 13.5732C7.13346 14.2799 8.03388 14.7612 9.01412 14.9562C9.99437 15.1512 11.0104 15.0511 11.9338 14.6686C12.8572 14.2862 13.6464 13.6385 14.2017 12.8075C14.7569 11.9765 15.0533 10.9994 15.0533 9.99999C15.0533 8.65977 14.5209 7.37443 13.5732 6.42675C12.6255 5.47907 11.3402 4.94667 9.99998 4.94667ZM9.99998 13.2802C9.35122 13.2802 8.71703 13.0878 8.17761 12.7274C7.63819 12.3669 7.21776 11.8546 6.9695 11.2552C6.72124 10.6559 6.65628 9.99633 6.78285 9.36003C6.90943 8.72374 7.22184 8.13927 7.68058 7.68053C8.13933 7.22179 8.7238 6.90938 9.3601 6.78282C9.99639 6.65626 10.6559 6.72122 11.2553 6.96949C11.8547 7.21776 12.367 7.63819 12.7274 8.17762C13.0878 8.71704 13.2802 9.35123 13.2802 9.99999C13.2802 10.87 12.9346 11.7043 12.3194 12.3194C11.7043 12.9346 10.8699 13.2802 9.99998 13.2802Z" fill="#2F2B32"/>
        <path d="M15.253 5.92788C15.9052 5.92788 16.4339 5.39919 16.4339 4.74702C16.4339 4.09485 15.9052 3.56616 15.253 3.56616C14.6008 3.56616 14.0721 4.09485 14.0721 4.74702C14.0721 5.39919 14.6008 5.92788 15.253 5.92788Z" fill="#2F2B32"/>
    </g>
    <defs>
        <clipPath id="clip0">
            <rect width="20" height="20" fill="white"/>
        </clipPath>
    </defs>
</svg>