<svg width="84" height="84" viewBox="0 0 84 84" fill="none" xmlns="http://www.w3.org/2000/svg">
    <path d="M78.4974 25.5668C82.7769 35.0766 83.1485 45.8788 79.5324 55.6583C75.9163 65.4378 68.6002 73.4165 59.1522 77.8844C49.7041 82.3522 38.8759 82.9538 28.9882 79.5601C19.1004 76.1664 10.94 69.0475 6.25574 59.729C6.85191 59.6328 7.45284 59.5687 8.05593 59.537C10.34 59.4062 13.6082 57.8123 15.0271 56.5249C17.3071 54.4815 19.8741 52.6669 23.8558 53.3331C27.7187 53.9829 29.7895 51.355 33.5129 54.0319C36.5884 56.2429 43.0716 54.2158 45.7042 52.4912C50.3749 49.426 55.5459 48.5964 59.4005 45.9726C63.1608 43.4224 63.1895 43.3938 66.958 36.4338C69.3569 32.0037 68.8116 32.7148 71.518 29.8335C73.1255 28.1252 74.2244 28.0517 75.2496 27.7124C75.5777 27.6103 77.0949 26.5068 78.4974 25.5668Z"
          fill="#999999"/>
    <path d="M42.0209 81.6943C48.6909 81.6904 55.2541 80.0243 61.1133 76.8476C66.9725 73.6709 71.9417 69.0844 75.5686 63.5054C79.1956 57.9265 81.3652 51.5322 81.8802 44.9044C82.3951 38.2766 81.2389 31.6257 78.5169 25.5568C77.1144 26.4968 75.5972 27.6003 75.2896 27.7024C74.2645 28.0417 73.1655 28.1111 71.558 29.8235C68.8516 32.6844 69.3929 31.9937 66.9981 36.4239C63.2296 43.3716 63.2008 43.4124 59.4405 45.9626C55.5777 48.5864 50.419 49.4161 45.7443 52.4812C43.1116 54.21 36.6285 56.2371 33.553 54.022C29.8296 51.3451 27.7628 53.9729 23.8959 53.3231C19.9141 52.657 17.3348 54.4634 15.0671 56.515C13.6319 57.8024 10.3636 59.3758 8.09597 59.527C7.49288 59.5588 6.89194 59.6229 6.29578 59.7191C9.62123 66.3226 14.7232 71.8747 21.0319 75.7553C27.3405 79.6358 34.6074 81.6921 42.0209 81.6943V81.6943Z"
          stroke="#2F2B32" stroke-width="3" stroke-miterlimit="10"/>
    <path d="M73.7772 66.2336C73.7157 53.4948 73.7157 41.0461 73.9167 28.3563" stroke="#2F2B32" stroke-miterlimit="10"/>
    <path d="M62.0372 76.892V43.4123" stroke="#2F2B32" stroke-miterlimit="10"/>
    <path d="M50.0878 81.5349C49.9511 71.1814 49.9716 60.828 50.1493 50.4745" stroke="#2F2B32" stroke-miterlimit="10"/>
    <path d="M38.2616 82.0048V54.9455" stroke="#2F2B32" stroke-miterlimit="10"/>
    <path d="M26.2671 78.392C26.1796 70.0466 26.2152 61.7012 26.3737 53.3558" stroke="#2F2B32" stroke-miterlimit="10"/>
    <path d="M14.4899 70.913C14.518 66.258 14.5261 61.6072 14.4899 56.9522" stroke="#2F2B32" stroke-miterlimit="10"/>
    <path d="M73.9375 29.3454C74.5694 29.3454 75.0817 28.8349 75.0817 28.2052C75.0817 27.5754 74.5694 27.0649 73.9375 27.0649C73.3056 27.0649 72.7933 27.5754 72.7933 28.2052C72.7933 28.8349 73.3056 29.3454 73.9375 29.3454Z"
          fill="#2F2B32" stroke="#D9E021" stroke-miterlimit="10"/>
    <path d="M50.1739 51.6312C50.8057 51.6312 51.318 51.1207 51.318 50.491C51.318 49.8612 50.8057 49.3507 50.1739 49.3507C49.542 49.3507 49.0298 49.8612 49.0298 50.491C49.0298 51.1207 49.542 51.6312 50.1739 51.6312Z"
          fill="#2F2B32" stroke="#D9E021" stroke-miterlimit="10"/>
    <path d="M26.3819 54.4756C27.0137 54.4756 27.5259 53.9651 27.5259 53.3354C27.5259 52.7056 27.0137 52.1951 26.3819 52.1951C25.75 52.1951 25.2378 52.7056 25.2378 53.3354C25.2378 53.9651 25.75 54.4756 26.3819 54.4756Z"
          fill="#2F2B32" stroke="#D9E021" stroke-miterlimit="10"/>
    <path d="M62.0371 45.2065C62.669 45.2065 63.1812 44.696 63.1812 44.0663C63.1812 43.4366 62.669 42.9261 62.0371 42.9261C61.4053 42.9261 60.8931 43.4366 60.8931 44.0663C60.8931 44.696 61.4053 45.2065 62.0371 45.2065Z"
          fill="#2F2B32" stroke="#D9E021" stroke-miterlimit="10"/>
    <path d="M38.2821 56.0367C38.9139 56.0367 39.4262 55.5262 39.4262 54.8965C39.4262 54.2667 38.9139 53.7562 38.2821 53.7562C37.6502 53.7562 37.1379 54.2667 37.1379 54.8965C37.1379 55.5262 37.6502 56.0367 38.2821 56.0367Z"
          fill="#2F2B32" stroke="#D9E021" stroke-miterlimit="10"/>
    <path d="M14.4981 57.4018C15.13 57.4018 15.6422 56.8913 15.6422 56.2616C15.6422 55.6319 15.13 55.1214 14.4981 55.1214C13.8662 55.1214 13.354 55.6319 13.354 56.2616C13.354 56.8913 13.8662 57.4018 14.4981 57.4018Z"
          fill="#2F2B32" stroke="#D9E021" stroke-miterlimit="10"/>
    <path d="M81.9788 41.8471C81.9794 47.0794 80.9458 52.2605 78.9373 57.0947C76.9287 61.9289 73.9845 66.3214 70.2726 70.0216C66.5607 73.7217 62.1539 76.657 57.3038 78.6598C52.4538 80.6626 47.2553 81.6937 42.0054 81.6942C23.0562 81.6942 11.0371 67.055 10.3441 66.1641C8.05592 63.2297 1.64246 54.1078 2.01562 41.8471C2.60612 23.7586 17.8893 2 42.0054 2C47.2553 2.00054 52.4538 3.03164 57.3038 5.03443C62.1539 7.03723 66.5607 9.9725 70.2726 13.6726C73.9845 17.3728 76.9287 21.7654 78.9373 26.5995C80.9458 31.4337 81.9794 36.6149 81.9788 41.8471V41.8471Z"
          stroke="#2F2B32" stroke-width="4" stroke-miterlimit="10"/>
    <path d="M55.8984 20.9918V30.4693H52.8147C52.5389 29.5531 52.2131 28.6527 51.8388 27.7719C51.558 27.0933 51.2148 26.4421 50.8136 25.8266C50.4945 25.3444 50.0951 24.92 49.6326 24.5719C49.1778 24.2485 48.6569 24.0294 48.1072 23.9302C47.4116 23.8065 46.7059 23.749 45.9994 23.7586H36.0512V40.1961H42.7886C43.5348 40.226 44.278 40.0862 44.9619 39.7874C45.5252 39.4881 45.982 39.0228 46.27 38.4551C46.7168 37.5188 47.0433 36.5302 47.2419 35.5125H50.2026V47.5688H47.2419C47.0432 46.5834 46.715 45.6284 46.2659 44.7285C45.9775 44.1634 45.5357 43.6904 44.9906 43.3634C44.2951 43.0506 43.5339 42.9104 42.7722 42.9547H36.0512V61.0597H45.8436C46.6855 61.0811 47.5265 60.9918 48.345 60.794C48.9577 60.627 49.5206 60.3143 49.9853 59.8827C50.4892 59.3975 50.9054 58.8292 51.2155 58.2029C51.5727 57.5118 51.873 56.7928 52.1135 56.0532C52.3541 55.3121 52.6849 54.2291 53.1059 52.8042H56.2224L55.6237 63.8183H26.4597V62.2817C27.761 61.9465 28.6317 61.5746 29.0718 61.166C29.544 60.6959 29.848 60.0841 29.937 59.4249C30.0994 58.2813 30.168 57.1263 30.1421 55.9715V28.8386C30.1645 27.7846 30.1125 26.7303 29.9863 25.6835C29.9209 25.141 29.7436 24.6178 29.4655 24.1468C29.2249 23.7739 28.8952 23.4664 28.5059 23.2518C27.8494 22.9376 27.1624 22.6911 26.4556 22.5162V20.9918H55.8984Z"
          fill="#2F2B32"/>
    <path d="M35.936 59.666C35.5677 59.1318 35.3265 58.521 35.2307 57.88C35.0642 56.8849 34.9901 55.8766 35.0093 54.868V51.4268H29.1043V54.962C29.1302 56.1167 29.0616 57.2717 28.8992 58.4154C28.8102 59.0746 28.5062 59.6863 28.034 60.1564C27.5939 60.5651 26.7232 60.937 25.4219 61.2721V62.8088H39.397V61.2598C38.6803 61.1071 37.9758 60.9022 37.2892 60.6468C36.755 60.4523 36.2862 60.1125 35.936 59.666Z"
          fill="#D9E021"/>
    <path d="M25.41 21.4863C26.1169 21.6611 26.8039 21.9076 27.4603 22.2219C27.8477 22.4319 28.1773 22.7337 28.4199 23.1006C28.6981 23.5715 28.8754 24.0947 28.9407 24.6373C29.0614 25.6844 29.108 26.7387 29.0801 27.7923V54.9333C29.1058 56.0868 29.0373 57.2403 28.8751 58.3827C28.7861 59.0419 28.482 59.6536 28.0098 60.1237C27.5697 60.5324 26.699 60.9043 25.3977 61.2394V62.7761H34.981V41.9125H41.7184C42.4802 41.8682 43.2414 42.0084 43.9369 42.3212C44.482 42.648 44.9239 43.121 45.2122 43.6862C45.6612 44.5862 45.9894 45.5412 46.1881 46.5266H49.1488V34.4785H46.1881C45.9837 35.4999 45.6502 36.4913 45.1958 37.4292C44.908 37.9971 44.4511 38.4625 43.8877 38.7615C43.2037 39.0604 42.4605 39.2001 41.7143 39.1702H34.981V22.7123H44.9292C45.6357 22.7028 46.3415 22.7603 47.037 22.884C47.5867 22.9832 48.1076 23.2023 48.5624 23.5256C49.025 23.8737 49.4244 24.2981 49.7434 24.7803C50.1489 25.3954 50.4962 26.0466 50.7809 26.7257C51.1553 27.6064 51.4811 28.5068 51.7569 29.423H54.8406V19.9496H25.41V21.4863Z"
          fill="#D9E021"/>
</svg>
