<svg width="20" height="20" viewBox="0 0 20 20" fill="none" xmlns="http://www.w3.org/2000/svg">
    <path d="M15.5556 -0.0710754H4.44444C2 -0.0710754 0 1.92892 0 4.37337V15.4845C0 17.9289 2 19.9289 4.44444 19.9289H15.5556C18 19.9289 20 17.9289 20 15.4845V4.37337C20 1.92892 18 -0.0710754 15.5556 -0.0710754ZM15.6111 7.15115C15.6111 7.26226 15.6111 7.31781 15.6111 7.54003C15.6111 11.1511 12.8333 15.3734 7.77778 15.3734C6.27778 15.3734 4.83333 14.8734 3.61111 14.1511C3.77778 14.1511 4.11111 14.1511 4.27778 14.1511C5.5 14.1511 6.77778 13.6511 7.72222 12.9845C6.5 12.9845 5.55556 12.1511 5.16667 11.0956C5.33333 11.0956 5.55556 11.2067 5.66667 11.2067C5.94444 11.2067 6.16667 11.2067 6.44444 11.0956C5.22222 10.8178 4.27778 9.76226 4.27778 8.42892C4.66667 8.59559 5.05555 8.7067 5.5 8.81781C4.72222 8.15115 4.27778 7.37337 4.27778 6.42892C4.27778 5.92892 4.38889 5.48448 4.66667 5.09559C6 6.7067 8 7.87337 10.2778 7.92892C10.2778 7.76226 10.1667 7.54003 10.1667 7.26226C10.1667 5.76226 11.3889 4.48448 12.9444 4.48448C13.7222 4.48448 14.4444 4.76226 14.9444 5.31781C15.6111 5.2067 16.1667 4.92892 16.6667 4.65115C16.5 5.31781 16 5.81781 15.4444 6.15115C16 6.04003 16.5 5.98448 17.0556 5.65115C16.5556 6.31781 16.1111 6.76226 15.6111 7.15115Z" fill="#2F2B32"/>
</svg>